<svg xmlns="http://www.w3.org/2000/svg" width="36.895" height="28.256" viewBox="0 0 36.895 28.256">
  <g id="Group_1610" data-name="Group 1610" transform="translate(-17159.5 -552.5)">
    <path id="Path_101" data-name="Path 101" d="M156.105,120.584a.675.675,0,0,1-.675-.675.652.652,0,0,1,.675-.675,3.961,3.961,0,0,0,3.938-3.938v-.225a3.939,3.939,0,0,0-3.938-3.938H130.9a3.939,3.939,0,0,0-3.938,3.938v.225a3.961,3.961,0,0,0,3.938,3.938.652.652,0,0,1,.675.675.675.675,0,0,1-.675.675,5.311,5.311,0,0,1-5.288-5.288v-.225a5.289,5.289,0,0,1,5.288-5.289h25.205a5.288,5.288,0,0,1,5.4,5.289v.225a5.311,5.311,0,0,1-5.4,5.288Z" transform="translate(17034.389 443.219)" fill="#abd360" stroke="#abd360" stroke-width="1"/>
    <path id="Path_102" data-name="Path 102" d="M214.844,197.829H197.358A3.736,3.736,0,0,1,193.622,194V176.517a.675.675,0,0,1,.675-.675.653.653,0,0,1,.675.675V194a2.408,2.408,0,0,0,2.385,2.385h17.486a2.408,2.408,0,0,0,2.5-2.385V176.517a.652.652,0,0,1,.675-.675.675.675,0,0,1,.675.675V194a3.736,3.736,0,0,1-3.849,3.826Z" transform="translate(16971.801 382.425)" fill="#abd360" stroke="#abd360" stroke-width="1"/>
    <path id="Path_103" data-name="Path 103" d="M196.084,173.8H168.336a.7.7,0,0,1-.675-.675.675.675,0,0,1,.675-.675h27.748a.652.652,0,0,1,.675.675.675.675,0,0,1-.675.675Z" transform="translate(16995.691 385.546)" fill="#abd360" stroke="#abd360" stroke-width="1"/>
    <path id="Path_104" data-name="Path 104" d="M417.507,183.245a.608.608,0,0,1-.608-.608v-9a.608.608,0,0,1,1.215,0v9A.607.607,0,0,1,417.507,183.245Z" transform="translate(16766.326 385.015)" fill="#abd360" stroke="#abd360" stroke-width="1"/>
    <path id="Path_105" data-name="Path 105" d="M345.807,188.889a.607.607,0,0,1-.608-.608V172.775a.608.608,0,1,1,1.215,0v15.506a.608.608,0,0,1-.608.608Z" transform="translate(16832.309 385.806)" fill="#abd360" stroke="#abd360" stroke-width="1"/>
    <path id="Path_106" data-name="Path 106" d="M272.707,318.429a.607.607,0,0,1-.608-.608v-4.186a.608.608,0,1,1,1.215,0v4.186a.608.608,0,0,1-.608.608Z" transform="translate(16899.582 256.177)" fill="#abd360" stroke="#abd360" stroke-width="1"/>
  </g>
</svg>
