<svg xmlns="http://www.w3.org/2000/svg" width="28.84" height="26.216" viewBox="0 0 28.84 26.216">
  <g id="Group_1710" data-name="Group 1710" transform="translate(-1616.5 -927.807)">
    <path id="Path_8121" data-name="Path 8121" d="M210.88,372.75h14.856v3.7H210.88Z" transform="translate(1412.578 573.126)" fill="#ef08c9"/>
    <path id="Path_8122" data-name="Path 8122" d="M228.658,294h-.7a5.1,5.1,0,0,1-.515,1.287h.7l.491.959H217.943l.491-.959h.7a4.362,4.362,0,0,1-.515-1.287H217.9l-1.778,3.556h14.318Z" transform="translate(1407.62 647.666)" fill="#ef08c9"/>
    <path id="Path_8123" data-name="Path 8123" d="M282.546,204.488a4,4,0,1,0-6.925-2.737,4.135,4.135,0,0,0,1.076,2.737Z" transform="translate(1351.298 738.769)" fill="#ef08c9"/>
    <path id="Path_8124" data-name="Path 8124" d="M115.036,44.188H93.021a2.916,2.916,0,0,0-2.9,2.9V66.484a2.793,2.793,0,0,0,2.457,2.807c.468.047,9.943.094,14.248.094h4.539c1.263,0,2.5.047,3.7,0a2.946,2.946,0,0,0,2.854-2.948c.047-6.2.047-13.1.047-19.3A3.041,3.041,0,0,0,115.036,44.188ZM100.2,46.247a1.2,1.2,0,0,1,1.146,1.146,1.146,1.146,0,1,1-2.293,0A1.2,1.2,0,0,1,100.2,46.247Zm-4.609,1.1a1.172,1.172,0,0,1,1.1-1.146,1.119,1.119,0,0,1,1.146,1.146,1.189,1.189,0,0,1-1.146,1.193A1.108,1.108,0,0,1,95.594,47.346Zm-2.457-1.1a1.2,1.2,0,0,1,1.146,1.146,1.146,1.146,0,1,1-1.146-1.146Zm23.114,19.395v.3a1.794,1.794,0,0,1-1.942,1.8H93.84a1.88,1.88,0,0,1-2.106-2.106V50.013h17.312c.538,0,.538,0,.538-.538V48.212c0-.3.094-.445.4-.445h4.445c.351,0,.445.14.4.445v1.451c0,.257.094.4.351.351h1.1V65.642Z" transform="translate(1526.88 884.119)" fill="#ef08c9" stroke="#ef08c9" stroke-width="1"/>
  </g>
</svg>
