<svg xmlns="http://www.w3.org/2000/svg" width="39.122" height="39.969" viewBox="0 0 39.122 39.969">
  <g id="Group_1707" data-name="Group 1707" transform="translate(-1346.732 -888.338)">
    <g id="Group_1706" data-name="Group 1706" transform="translate(-436.834 3.865)">
      <g id="Group_1705" data-name="Group 1705" transform="translate(-15507.414 160.744)">
        <path id="Path_99" data-name="Path 99" d="M140.074,60.719a9.354,9.354,0,1,1-9.381,9.354,9.354,9.354,0,0,1,9.381-9.354m0-1.36a10.714,10.714,0,1,0,10.714,10.714A10.717,10.717,0,0,0,140.074,59.359Z" transform="translate(17171.469 672.641)" fill="#d9720b" stroke="#d9720b" stroke-width="0.7"/>
        <path id="Path_100" data-name="Path 100" d="M268.091,168.339a.61.61,0,0,1-.625.6h-2.039a3.389,3.389,0,0,1-3.317,2.556H261.4l4.405,4.215a.633.633,0,0,1,.027.87.771.771,0,0,1-.435.19.724.724,0,0,1-.435-.163l-5.493-5.249c-.054-.054-.109-.109-.109-.163,0-.027-.027-.054-.027-.082s-.027-.054-.027-.082v-.245a.965.965,0,0,1,.109-.245c.054-.054.109-.136.19-.163.054-.054.136-.054.19-.082h2.339a2.245,2.245,0,0,0,2.039-1.332h-4.3a.6.6,0,0,1-.6-.6.628.628,0,0,1,.6-.625h4.405a2.221,2.221,0,0,0-1.9-1.849c-.082,0-.19-.027-.272-.027h-2.23a.613.613,0,0,1-.6-.489v-.245c0-.027.027-.082.027-.109s.027-.054.027-.082a.594.594,0,0,1,.109-.136l.082-.082a.645.645,0,0,1,.326-.082h7.587a.625.625,0,0,1,0,1.251h-2.719a3.443,3.443,0,0,1,.788,1.849h1.931a.6.6,0,0,1,.653.6Z" transform="translate(17047.855 572.472)" fill="#d9720b" stroke="#d9720b" stroke-width="0.7"/>
      </g>
      <g id="noun-contribute-3235233" transform="translate(1713.52 859.959)">
        <path id="Path_8072" data-name="Path 8072" d="M166.36,101.995V96.96a.609.609,0,0,1,.6-.6h5.035a.569.569,0,0,1,.252.056s.012,0,.016.008.012,0,.016.008a.578.578,0,0,1,.14.1.57.57,0,0,1,.164.332v.008a.612.612,0,0,1-.092.416s0,.008-.008.012a.425.425,0,0,1-.068.08l-.623.623-2.709,2.709-1.7,1.7a.6.6,0,0,1-1.023-.42Z" transform="translate(-89.276 -66.598)" fill="#d9720b"/>
        <path id="Path_8073" data-name="Path 8073" d="M172.422,382.527A.606.606,0,0,1,172,383.55h-5.035a.609.609,0,0,1-.6-.6v-5.035a.521.521,0,0,1,.06-.252s0-.012.008-.016,0-.012.008-.016a.579.579,0,0,1,.1-.14.57.57,0,0,1,.332-.164h.008a.612.612,0,0,1,.416.092s.008,0,.012.008a.423.423,0,0,1,.08.068l3.332,3.332c.567.563,1.131,1.131,1.7,1.7Z" transform="translate(-89.28 -327.031)" fill="#d9720b"/>
        <path id="Path_8074" data-name="Path 8074" d="M301.289,471.443l-.444.443L297.729,475a.611.611,0,0,1-.847,0l-.444-.444-3.117-3.117a.57.57,0,0,1-.164-.332V471.1a.612.612,0,0,1,.092-.416l0,0s0,0,0-.008a.425.425,0,0,1,.068-.08.573.573,0,0,1,.224-.14h0a.548.548,0,0,1,.2-.036h7.121A.605.605,0,0,1,301.289,471.443Z" transform="translate(-206.803 -413.326)" fill="#d9720b"/>
        <path id="Path_8075" data-name="Path 8075" d="M293.333,28.245c.152-.152.3-.3.447-.452q1.558-1.558,3.113-3.109a.611.611,0,0,1,.847,0c.148.152.3.3.448.452q1.558,1.552,3.113,3.109a.57.57,0,0,1,.164.332v.008a.6.6,0,0,1,.008.088.542.542,0,0,1-.1.332s0,.008-.008.012a.639.639,0,0,1-.292.22h0a.548.548,0,0,1-.2.036h-7.117a.609.609,0,0,1-.424-1.027Z" transform="translate(-206.815)" fill="#d9720b"/>
        <path id="Path_8077" data-name="Path 8077" d="M453.553,96.956v5.035a.532.532,0,0,1-.06.252s0,.012-.008.016,0,.012-.008.016a.622.622,0,0,1-.432.3h-.008a.6.6,0,0,1-.088.008.542.542,0,0,1-.332-.1s-.008,0-.012-.008a.425.425,0,0,1-.08-.068l-5.031-5.031a.606.606,0,0,1,.424-1.023h5.035a.609.609,0,0,1,.6.6Z" transform="translate(-349.712 -66.593)" fill="#d9720b"/>
        <path id="Path_8078" data-name="Path 8078" d="M453.55,377.919v5.035a.609.609,0,0,1-.6.6h-5.035a.52.52,0,0,1-.252-.06s-.012,0-.016-.008-.012,0-.016-.008a.578.578,0,0,1-.14-.1.57.57,0,0,1-.164-.332v-.008a.612.612,0,0,1,.092-.416s0-.008.008-.012a.424.424,0,0,1,.068-.08l3.332-3.333c.567-.567,1.135-1.131,1.7-1.7A.606.606,0,0,1,453.55,377.919Z" transform="translate(-349.709 -327.033)" fill="#d9720b"/>
        <path id="Path_8079" data-name="Path 8079" d="M544.956,227.74c-.152.148-.3.3-.452.448q-1.558,1.558-3.109,3.113a.57.57,0,0,1-.332.164h-.008a.6.6,0,0,1-.088.008.542.542,0,0,1-.332-.1,0,0,0,0,1,0,0s0,0-.008,0a.638.638,0,0,1-.22-.292v0a.549.549,0,0,1-.036-.2v-7.117a.606.606,0,0,1,1.023-.424c.152.152.3.3.451.448q1.552,1.558,3.109,3.113a.607.607,0,0,1,0,.847Z" transform="translate(-435.957 -184.135)" fill="#d9720b"/>
        <path id="Path_8080" data-name="Path 8080" d="M99.236,223.568a.548.548,0,0,1,.036.2v7.121a.606.606,0,0,1-1.023.424c-.152-.152-.3-.3-.452-.448l-3.109-3.109a.611.611,0,0,1,0-.847l.444-.444,3.117-3.117a.57.57,0,0,1,.332-.164h.008a.6.6,0,0,1,.088-.008.542.542,0,0,1,.332.1,0,0,0,0,1,0,0s0,0,.008,0a.587.587,0,0,1,.216.288h0Z" transform="translate(-22.683 -184.143)" fill="#d9720b"/>
        <g id="Group_1665" data-name="Group 1665" transform="translate(70.054 64.091)">
          <path id="Path_8081" data-name="Path 8081" d="M.264-1.891a.069.069,0,0,1-.022.008l-.023,0A.083.083,0,0,1,.161-1.9a.075.075,0,0,1-.021-.056.074.074,0,0,1,.021-.055.081.081,0,0,1,.058-.021.072.072,0,0,1,.023,0,.086.086,0,0,1,.022.008v.03A.086.086,0,0,0,.243-2,.069.069,0,0,0,.222-2a.038.038,0,0,0-.031.014.049.049,0,0,0-.011.034.054.054,0,0,0,.011.037.038.038,0,0,0,.031.013.069.069,0,0,0,.022,0,.086.086,0,0,0,.021-.01Z" transform="translate(-0.141 2.031)" fill="#d9720b"/>
        </g>
        <g id="Group_1666" data-name="Group 1666" transform="translate(70.207 64.127)">
          <path id="Path_8082" data-name="Path 8082" d="M.315-1.5l-.009,0H.3a.027.027,0,0,0-.022.009.036.036,0,0,0-.007.024v.05H.234v-.11H.269v.018a.046.046,0,0,1,.015-.015.04.04,0,0,1,.022-.006h.01Z" transform="translate(-0.234 1.531)" fill="#d9720b"/>
        </g>
        <g id="Group_1667" data-name="Group 1667" transform="translate(70.298 64.127)">
          <path id="Path_8083" data-name="Path 8083" d="M.241-1.474v.01H.16a.028.028,0,0,0,.008.018A.035.035,0,0,0,.19-1.44a.081.081,0,0,0,.023,0l.024-.009v.026l-.025.007-.025,0a.064.064,0,0,1-.046-.015.054.054,0,0,1-.016-.042.053.053,0,0,1,.016-.041.06.06,0,0,1,.045-.016.053.053,0,0,1,.04.016.054.054,0,0,1,.016.041ZM.206-1.486A.022.022,0,0,0,.2-1.5a.02.02,0,0,0-.016-.007A.024.024,0,0,0,.168-1.5a.024.024,0,0,0-.008.017Z" transform="translate(-0.125 1.531)" fill="#d9720b"/>
        </g>
        <g id="Group_1668" data-name="Group 1668" transform="translate(70.433 64.127)">
          <path id="Path_8084" data-name="Path 8084" d="M.182-1.468a.033.033,0,0,0-.017,0,.012.012,0,0,0-.006.011.012.012,0,0,0,0,.01.02.02,0,0,0,.013,0,.02.02,0,0,0,.016-.007A.025.025,0,0,0,.2-1.465v0Zm.053-.014v.063H.2v-.016a.041.041,0,0,1-.016.015.053.053,0,0,1-.021,0,.039.039,0,0,1-.027-.009.035.035,0,0,1-.01-.026A.03.03,0,0,1,.138-1.48a.076.076,0,0,1,.041-.009H.2v0A.012.012,0,0,0,.192-1.5a.033.033,0,0,0-.019,0l-.022,0L.134-1.5v-.026l.023,0H.179a.064.064,0,0,1,.042.011.047.047,0,0,1,.014.038Z" transform="translate(-0.125 1.531)" fill="#d9720b"/>
        </g>
        <g id="Group_1669" data-name="Group 1669" transform="translate(70.561 64.099)">
          <path id="Path_8085" data-name="Path 8085" d="M.084-1.922v.031H.12v.025H.084v.047a.017.017,0,0,0,0,.01.022.022,0,0,0,.013,0H.117v.025H.087a.044.044,0,0,1-.03-.008.044.044,0,0,1-.008-.03v-.047H.031v-.025H.05v-.031Z" transform="translate(-0.031 1.922)" fill="#d9720b"/>
        </g>
        <g id="Group_1670" data-name="Group 1670" transform="translate(70.664 64.127)">
          <path id="Path_8086" data-name="Path 8086" d="M.241-1.474v.01H.16a.028.028,0,0,0,.008.018A.035.035,0,0,0,.19-1.44a.081.081,0,0,0,.023,0l.024-.009v.026l-.025.007-.025,0a.064.064,0,0,1-.046-.015.054.054,0,0,1-.016-.042.053.053,0,0,1,.016-.041.06.06,0,0,1,.045-.016.053.053,0,0,1,.04.016.054.054,0,0,1,.016.041ZM.206-1.486A.022.022,0,0,0,.2-1.5a.02.02,0,0,0-.016-.007A.024.024,0,0,0,.168-1.5a.024.024,0,0,0-.008.017Z" transform="translate(-0.125 1.531)" fill="#d9720b"/>
        </g>
        <g id="Group_1671" data-name="Group 1671" transform="translate(70.799 64.087)">
          <path id="Path_8087" data-name="Path 8087" d="M.207-2.02v-.058H.243v.152H.207v-.016a.051.051,0,0,1-.017.015.05.05,0,0,1-.019,0A.041.041,0,0,1,.138-1.94a.063.063,0,0,1-.013-.041.064.064,0,0,1,.013-.041.042.042,0,0,1,.033-.016.041.041,0,0,1,.019,0,.062.062,0,0,1,.017.014Zm-.023.071A.019.019,0,0,0,.2-1.957a.035.035,0,0,0,.007-.024A.035.035,0,0,0,.2-2a.018.018,0,0,0-.016-.009A.019.019,0,0,0,.167-2a.038.038,0,0,0-.006.023.039.039,0,0,0,.006.024A.019.019,0,0,0,.184-1.949Z" transform="translate(-0.125 2.078)" fill="#d9720b"/>
        </g>
        <g id="Group_1672" data-name="Group 1672" transform="translate(71.02 64.087)">
          <path id="Path_8088" data-name="Path 8088" d="M.293-1.949a.019.019,0,0,0,.016-.008.035.035,0,0,0,.007-.024A.035.035,0,0,0,.309-2a.018.018,0,0,0-.016-.009A.022.022,0,0,0,.274-2a.038.038,0,0,0-.006.023.039.039,0,0,0,.006.024A.022.022,0,0,0,.293-1.949ZM.269-2.02a.063.063,0,0,1,.016-.014.047.047,0,0,1,.021,0,.041.041,0,0,1,.033.016.066.066,0,0,1,.013.041.065.065,0,0,1-.013.041.04.04,0,0,1-.033.016.057.057,0,0,1-.021,0,.051.051,0,0,1-.016-.015v.016H.234v-.152H.269Z" transform="translate(-0.234 2.078)" fill="#d9720b"/>
        </g>
        <g id="Group_1673" data-name="Group 1673" transform="translate(71.148 64.129)">
          <path id="Path_8089" data-name="Path 8089" d="M.031-1.5H.067L.1-1.426.12-1.5H.156L.11-1.38a.051.051,0,0,1-.017.025.037.037,0,0,1-.024.008H.05V-1.37H.06a.018.018,0,0,0,.013,0,.018.018,0,0,0,.007-.01v0Z" transform="translate(-0.031 1.5)" fill="#d9720b"/>
        </g>
        <g id="Group_1674" data-name="Group 1674" transform="translate(71.356 64.127)">
          <path id="Path_8090" data-name="Path 8090" d="M.232-1.526V-1.5A.086.086,0,0,0,.21-1.506l-.019,0a.028.028,0,0,0-.015,0,.008.008,0,0,0,0,.007.007.007,0,0,0,0,.007.029.029,0,0,0,.014,0H.194a.075.075,0,0,1,.037.011.028.028,0,0,1,.009.024.03.03,0,0,1-.014.026.071.071,0,0,1-.038.008l-.023,0-.023,0V-1.45a.068.068,0,0,0,.021.008l.023,0a.033.033,0,0,0,.015,0,.01.01,0,0,0,.006-.009.008.008,0,0,0,0-.007l-.015,0H.183a.059.059,0,0,1-.033-.01A.029.029,0,0,1,.141-1.5a.028.028,0,0,1,.011-.025.062.062,0,0,1,.037-.009l.021,0,.023,0Z" transform="translate(-0.141 1.531)" fill="#d9720b"/>
        </g>
        <g id="Group_1675" data-name="Group 1675" transform="translate(71.481 64.087)">
          <path id="Path_8091" data-name="Path 8091" d="M.344-1.992v.066H.309v-.05A.124.124,0,0,0,.307-2a.038.038,0,0,0,0-.009L.3-2.01l-.008,0A.022.022,0,0,0,.274-2a.038.038,0,0,0-.006.023v.054H.234v-.152H.269v.058a.055.055,0,0,1,.017-.014.045.045,0,0,1,.019,0,.035.035,0,0,1,.029.011.05.05,0,0,1,.01.034Z" transform="translate(-0.234 2.078)" fill="#d9720b"/>
        </g>
        <g id="Group_1676" data-name="Group 1676" transform="translate(71.616 64.127)">
          <path id="Path_8092" data-name="Path 8092" d="M.182-1.468a.033.033,0,0,0-.017,0,.012.012,0,0,0-.006.011.012.012,0,0,0,0,.01.02.02,0,0,0,.013,0,.02.02,0,0,0,.016-.007A.025.025,0,0,0,.2-1.465v0Zm.053-.014v.063H.2v-.016a.041.041,0,0,1-.016.015.053.053,0,0,1-.021,0,.039.039,0,0,1-.027-.009.035.035,0,0,1-.01-.026A.03.03,0,0,1,.138-1.48a.076.076,0,0,1,.041-.009H.2v0A.012.012,0,0,0,.192-1.5a.033.033,0,0,0-.019,0l-.022,0L.134-1.5v-.026l.023,0H.179a.064.064,0,0,1,.042.011.047.047,0,0,1,.014.038Z" transform="translate(-0.125 1.531)" fill="#d9720b"/>
        </g>
        <g id="Group_1677" data-name="Group 1677" transform="translate(71.752 64.127)">
          <path id="Path_8093" data-name="Path 8093" d="M.232-1.526V-1.5A.086.086,0,0,0,.21-1.506l-.019,0a.028.028,0,0,0-.015,0,.008.008,0,0,0,0,.007.007.007,0,0,0,0,.007.029.029,0,0,0,.014,0H.194a.075.075,0,0,1,.037.011.028.028,0,0,1,.009.024.03.03,0,0,1-.014.026.071.071,0,0,1-.038.008l-.023,0-.023,0V-1.45a.068.068,0,0,0,.021.008l.023,0a.033.033,0,0,0,.015,0,.01.01,0,0,0,.006-.009.008.008,0,0,0,0-.007l-.015,0H.183a.059.059,0,0,1-.033-.01A.029.029,0,0,1,.141-1.5a.028.028,0,0,1,.011-.025.062.062,0,0,1,.037-.009l.021,0,.023,0Z" transform="translate(-0.141 1.531)" fill="#d9720b"/>
        </g>
        <g id="Group_1678" data-name="Group 1678" transform="translate(71.877 64.087)">
          <path id="Path_8094" data-name="Path 8094" d="M.344-1.992v.066H.309v-.05A.124.124,0,0,0,.307-2a.038.038,0,0,0,0-.009L.3-2.01l-.008,0A.022.022,0,0,0,.274-2a.038.038,0,0,0-.006.023v.054H.234v-.152H.269v.058a.055.055,0,0,1,.017-.014.045.045,0,0,1,.019,0,.035.035,0,0,1,.029.011.05.05,0,0,1,.01.034Z" transform="translate(-0.234 2.078)" fill="#d9720b"/>
        </g>
        <g id="Group_1679" data-name="Group 1679" transform="translate(72.012 64.127)">
          <path id="Path_8095" data-name="Path 8095" d="M.182-1.468a.033.033,0,0,0-.017,0,.012.012,0,0,0-.006.011.012.012,0,0,0,0,.01.02.02,0,0,0,.013,0,.02.02,0,0,0,.016-.007A.025.025,0,0,0,.2-1.465v0Zm.053-.014v.063H.2v-.016a.041.041,0,0,1-.016.015.053.053,0,0,1-.021,0,.039.039,0,0,1-.027-.009.035.035,0,0,1-.01-.026A.03.03,0,0,1,.138-1.48a.076.076,0,0,1,.041-.009H.2v0A.012.012,0,0,0,.192-1.5a.033.033,0,0,0-.019,0l-.022,0L.134-1.5v-.026l.023,0H.179a.064.064,0,0,1,.042.011.047.047,0,0,1,.014.038Z" transform="translate(-0.125 1.531)" fill="#d9720b"/>
        </g>
        <g id="Group_1680" data-name="Group 1680" transform="translate(72.154 64.127)">
          <path id="Path_8096" data-name="Path 8096" d="M.344-1.486v.066H.309v-.051a.112.112,0,0,0,0-.018.038.038,0,0,0,0-.009L.3-1.5l-.008,0A.022.022,0,0,0,.274-1.5a.038.038,0,0,0-.006.023v.054H.234v-.11H.269v.016a.055.055,0,0,1,.017-.014.045.045,0,0,1,.019,0,.035.035,0,0,1,.029.011.05.05,0,0,1,.01.034Z" transform="translate(-0.234 1.531)" fill="#d9720b"/>
        </g>
        <g id="Group_1681" data-name="Group 1681" transform="translate(72.297 64.087)">
          <path id="Path_8097" data-name="Path 8097" d="M.234-2.078H.269V-2l.04-.04H.35L.3-1.986l.058.059H.312L.269-1.972v.046H.234Z" transform="translate(-0.234 2.078)" fill="#d9720b"/>
        </g>
        <g id="Group_1682" data-name="Group 1682" transform="translate(72.492 64.127)">
          <path id="Path_8098" data-name="Path 8098" d="M.232-1.526V-1.5A.086.086,0,0,0,.21-1.506l-.019,0a.028.028,0,0,0-.015,0,.008.008,0,0,0,0,.007.007.007,0,0,0,0,.007.029.029,0,0,0,.014,0H.194a.075.075,0,0,1,.037.011.028.028,0,0,1,.009.024.03.03,0,0,1-.014.026.071.071,0,0,1-.038.008l-.023,0-.023,0V-1.45a.068.068,0,0,0,.021.008l.023,0a.033.033,0,0,0,.015,0,.01.01,0,0,0,.006-.009.008.008,0,0,0,0-.007l-.015,0H.183a.059.059,0,0,1-.033-.01A.029.029,0,0,1,.141-1.5a.028.028,0,0,1,.011-.025.062.062,0,0,1,.037-.009l.021,0,.023,0Z" transform="translate(-0.141 1.531)" fill="#d9720b"/>
        </g>
        <g id="Group_1683" data-name="Group 1683" transform="translate(72.618 64.087)">
          <path id="Path_8099" data-name="Path 8099" d="M.234-2.036H.269v.11H.234Zm0-.042H.269v.029H.234Z" transform="translate(-0.234 2.078)" fill="#d9720b"/>
        </g>
        <g id="Group_1684" data-name="Group 1684" transform="translate(72.686 64.127)">
          <path id="Path_8100" data-name="Path 8100" d="M.344-1.486v.066H.309v-.051a.112.112,0,0,0,0-.018.038.038,0,0,0,0-.009L.3-1.5l-.008,0A.022.022,0,0,0,.274-1.5a.038.038,0,0,0-.006.023v.054H.234v-.11H.269v.016a.055.055,0,0,1,.017-.014.045.045,0,0,1,.019,0,.035.035,0,0,1,.029.011.05.05,0,0,1,.01.034Z" transform="translate(-0.234 1.531)" fill="#d9720b"/>
        </g>
        <g id="Group_1685" data-name="Group 1685" transform="translate(72.821 64.127)">
          <path id="Path_8101" data-name="Path 8101" d="M.207-1.438a.053.053,0,0,1-.017.014.038.038,0,0,1-.019,0,.041.041,0,0,1-.033-.016.061.061,0,0,1-.013-.04.062.062,0,0,1,.013-.04.042.042,0,0,1,.033-.016.041.041,0,0,1,.019,0,.062.062,0,0,1,.017.014v-.016H.243v.1a.048.048,0,0,1-.017.04.072.072,0,0,1-.048.015l-.021,0-.018,0V-1.41L.156-1.4a.051.051,0,0,0,.018,0A.035.035,0,0,0,.2-1.407a.033.033,0,0,0,.008-.024ZM.184-1.506A.02.02,0,0,0,.167-1.5a.038.038,0,0,0-.006.023.037.037,0,0,0,.006.023.019.019,0,0,0,.017.008A.019.019,0,0,0,.2-1.452a.034.034,0,0,0,.007-.023A.035.035,0,0,0,.2-1.5.019.019,0,0,0,.184-1.506Z" transform="translate(-0.125 1.531)" fill="#d9720b"/>
        </g>
        <g id="Group_1686" data-name="Group 1686" transform="translate(72.972 64.087)">
          <path id="Path_8102" data-name="Path 8102" d="M.344-1.992v.066H.309v-.05A.124.124,0,0,0,.307-2a.038.038,0,0,0,0-.009L.3-2.01l-.008,0A.022.022,0,0,0,.274-2a.038.038,0,0,0-.006.023v.054H.234v-.152H.269v.058a.055.055,0,0,1,.017-.014.045.045,0,0,1,.019,0,.035.035,0,0,1,.029.011.05.05,0,0,1,.01.034Z" transform="translate(-0.234 2.078)" fill="#d9720b"/>
        </g>
        <g id="Group_1687" data-name="Group 1687" transform="translate(70.047 64.287)">
          <path id="Path_8103" data-name="Path 8103" d="M.133-2.078v.023H.113a.016.016,0,0,0-.011,0,.013.013,0,0,0,0,.009v.007h.03v.025H.1v.084H.065v-.084H.047v-.025H.065v-.007a.033.033,0,0,1,.009-.026.046.046,0,0,1,.031-.009Z" transform="translate(-0.047 2.078)" fill="#d9720b"/>
        </g>
        <g id="Group_1688" data-name="Group 1688" transform="translate(70.148 64.327)">
          <path id="Path_8104" data-name="Path 8104" d="M.315-1.5l-.009,0H.3a.027.027,0,0,0-.022.009.036.036,0,0,0-.007.024v.05H.234v-.11H.269v.018a.046.046,0,0,1,.015-.015.04.04,0,0,1,.022-.006h.01Z" transform="translate(-0.234 1.531)" fill="#d9720b"/>
        </g>
        <g id="Group_1689" data-name="Group 1689" transform="translate(70.238 64.327)">
          <path id="Path_8105" data-name="Path 8105" d="M.184-1.506A.023.023,0,0,0,.166-1.5a.04.04,0,0,0-.006.024.045.045,0,0,0,.006.025.022.022,0,0,0,.018.008A.02.02,0,0,0,.2-1.449a.04.04,0,0,0,.007-.025A.036.036,0,0,0,.2-1.5.021.021,0,0,0,.184-1.506Zm0-.025a.061.061,0,0,1,.045.016.054.054,0,0,1,.016.041.055.055,0,0,1-.016.042.063.063,0,0,1-.045.015A.062.062,0,0,1,.14-1.432a.056.056,0,0,1-.015-.042A.055.055,0,0,1,.14-1.515.06.06,0,0,1,.184-1.531Z" transform="translate(-0.125 1.531)" fill="#d9720b"/>
        </g>
        <g id="Group_1690" data-name="Group 1690" transform="translate(70.383 64.327)">
          <path id="Path_8106" data-name="Path 8106" d="M.335-1.511a.041.041,0,0,1,.016-.015.038.038,0,0,1,.021-.006A.037.037,0,0,1,.4-1.52a.05.05,0,0,1,.01.034v.066H.375v-.064a.028.028,0,0,0,0-.016A.013.013,0,0,0,.36-1.5.018.018,0,0,0,.345-1.5a.04.04,0,0,0-.006.024v.054H.3v-.057A.047.047,0,0,0,.3-1.5.01.01,0,0,0,.29-1.5.018.018,0,0,0,.274-1.5a.038.038,0,0,0-.006.023v.054H.234v-.11H.269v.016a.051.051,0,0,1,.015-.014.042.042,0,0,1,.018,0,.034.034,0,0,1,.019.006.04.04,0,0,1,.014.015Z" transform="translate(-0.234 1.531)" fill="#d9720b"/>
        </g>
        <g id="Group_1691" data-name="Group 1691" transform="translate(70.646 64.298)">
          <path id="Path_8107" data-name="Path 8107" d="M.084-1.922v.031H.12v.025H.084v.047a.017.017,0,0,0,0,.01.022.022,0,0,0,.013,0H.117v.025H.087a.044.044,0,0,1-.03-.008.044.044,0,0,1-.008-.03v-.047H.031v-.025H.05v-.031Z" transform="translate(-0.031 1.922)" fill="#d9720b"/>
        </g>
        <g id="Group_1692" data-name="Group 1692" transform="translate(70.756 64.287)">
          <path id="Path_8108" data-name="Path 8108" d="M.344-1.992v.066H.309v-.05A.124.124,0,0,0,.307-2a.038.038,0,0,0,0-.009L.3-2.01l-.008,0A.022.022,0,0,0,.274-2a.038.038,0,0,0-.006.023v.054H.234v-.152H.269v.058a.055.055,0,0,1,.017-.014.045.045,0,0,1,.019,0,.035.035,0,0,1,.029.011.05.05,0,0,1,.01.034Z" transform="translate(-0.234 2.078)" fill="#d9720b"/>
        </g>
        <g id="Group_1693" data-name="Group 1693" transform="translate(70.891 64.327)">
          <path id="Path_8109" data-name="Path 8109" d="M.241-1.474v.01H.16a.028.028,0,0,0,.008.018A.035.035,0,0,0,.19-1.44a.081.081,0,0,0,.023,0l.024-.009v.026l-.025.007-.025,0a.064.064,0,0,1-.046-.015.054.054,0,0,1-.016-.042.053.053,0,0,1,.016-.041.06.06,0,0,1,.045-.016.053.053,0,0,1,.04.016.054.054,0,0,1,.016.041ZM.206-1.486A.022.022,0,0,0,.2-1.5a.02.02,0,0,0-.016-.007A.024.024,0,0,0,.168-1.5a.024.024,0,0,0-.008.017Z" transform="translate(-0.125 1.531)" fill="#d9720b"/>
        </g>
        <g id="Group_1694" data-name="Group 1694" transform="translate(71.105 64.293)">
          <path id="Path_8110" data-name="Path 8110" d="M.25-2H.292l.053.1V-2H.38v.146H.339l-.054-.1v.1H.25Z" transform="translate(-0.25 2)" fill="#d9720b"/>
        </g>
        <g id="Group_1695" data-name="Group 1695" transform="translate(71.263 64.327)">
          <path id="Path_8111" data-name="Path 8111" d="M.184-1.506A.023.023,0,0,0,.166-1.5a.04.04,0,0,0-.006.024.045.045,0,0,0,.006.025.022.022,0,0,0,.018.008A.02.02,0,0,0,.2-1.449a.04.04,0,0,0,.007-.025A.036.036,0,0,0,.2-1.5.021.021,0,0,0,.184-1.506Zm0-.025a.061.061,0,0,1,.045.016.054.054,0,0,1,.016.041.055.055,0,0,1-.016.042.063.063,0,0,1-.045.015A.062.062,0,0,1,.14-1.432a.056.056,0,0,1-.015-.042A.055.055,0,0,1,.14-1.515.06.06,0,0,1,.184-1.531Z" transform="translate(-0.125 1.531)" fill="#d9720b"/>
        </g>
        <g id="Group_1696" data-name="Group 1696" transform="translate(71.407 64.329)">
          <path id="Path_8112" data-name="Path 8112" d="M.219-1.433V-1.5H.253v.071a.012.012,0,0,0,0,.008l.006.006H.27a.019.019,0,0,0,.016-.008.034.034,0,0,0,.007-.023V-1.5H.328v.11H.293v-.016a.051.051,0,0,1-.017.015.046.046,0,0,1-.018,0A.037.037,0,0,1,.228-1.4a.05.05,0,0,1-.009-.033Z" transform="translate(-0.219 1.5)" fill="#d9720b"/>
        </g>
        <g id="Group_1697" data-name="Group 1697" transform="translate(71.55 64.327)">
          <path id="Path_8113" data-name="Path 8113" d="M.344-1.486v.066H.309v-.051a.112.112,0,0,0,0-.018.038.038,0,0,0,0-.009L.3-1.5l-.008,0A.022.022,0,0,0,.274-1.5a.038.038,0,0,0-.006.023v.054H.234v-.11H.269v.016a.055.055,0,0,1,.017-.014.045.045,0,0,1,.019,0,.035.035,0,0,1,.029.011.05.05,0,0,1,.01.034Z" transform="translate(-0.234 1.531)" fill="#d9720b"/>
        </g>
        <g id="Group_1698" data-name="Group 1698" transform="translate(71.763 64.293)">
          <path id="Path_8114" data-name="Path 8114" d="M.25-2H.313a.064.064,0,0,1,.042.013.045.045,0,0,1,.015.035.044.044,0,0,1-.015.035A.063.063,0,0,1,.313-1.9H.288v.05H.25Zm.038.027v.041H.308a.027.027,0,0,0,.017,0,.022.022,0,0,0,.006-.016.018.018,0,0,0-.006-.015.024.024,0,0,0-.017-.006Z" transform="translate(-0.25 2)" fill="#d9720b"/>
        </g>
        <g id="Group_1699" data-name="Group 1699" transform="translate(71.909 64.327)">
          <path id="Path_8115" data-name="Path 8115" d="M.315-1.5l-.009,0H.3a.027.027,0,0,0-.022.009.036.036,0,0,0-.007.024v.05H.234v-.11H.269v.018a.046.046,0,0,1,.015-.015.04.04,0,0,1,.022-.006h.01Z" transform="translate(-0.234 1.531)" fill="#d9720b"/>
        </g>
        <g id="Group_1700" data-name="Group 1700" transform="translate(71.999 64.327)">
          <path id="Path_8116" data-name="Path 8116" d="M.184-1.506A.023.023,0,0,0,.166-1.5a.04.04,0,0,0-.006.024.045.045,0,0,0,.006.025.022.022,0,0,0,.018.008A.02.02,0,0,0,.2-1.449a.04.04,0,0,0,.007-.025A.036.036,0,0,0,.2-1.5.021.021,0,0,0,.184-1.506Zm0-.025a.061.061,0,0,1,.045.016.054.054,0,0,1,.016.041.055.055,0,0,1-.016.042.063.063,0,0,1-.045.015A.062.062,0,0,1,.14-1.432a.056.056,0,0,1-.015-.042A.055.055,0,0,1,.14-1.515.06.06,0,0,1,.184-1.531Z" transform="translate(-0.125 1.531)" fill="#d9720b"/>
        </g>
        <g id="Group_1701" data-name="Group 1701" transform="translate(72.12 64.287)">
          <path id="Path_8117" data-name="Path 8117" d="M-.07-2.036h.034v.107a.05.05,0,0,1-.01.034.04.04,0,0,1-.031.011H-.094v-.023h.006a.017.017,0,0,0,.014,0,.028.028,0,0,0,0-.018Zm0-.042h.034v.029H-.07Z" transform="translate(0.094 2.078)" fill="#d9720b"/>
        </g>
        <g id="Group_1702" data-name="Group 1702" transform="translate(72.205 64.327)">
          <path id="Path_8118" data-name="Path 8118" d="M.241-1.474v.01H.16a.028.028,0,0,0,.008.018A.035.035,0,0,0,.19-1.44a.081.081,0,0,0,.023,0l.024-.009v.026l-.025.007-.025,0a.064.064,0,0,1-.046-.015.054.054,0,0,1-.016-.042.053.053,0,0,1,.016-.041.06.06,0,0,1,.045-.016.053.053,0,0,1,.04.016.054.054,0,0,1,.016.041ZM.206-1.486A.022.022,0,0,0,.2-1.5a.02.02,0,0,0-.016-.007A.024.024,0,0,0,.168-1.5a.024.024,0,0,0-.008.017Z" transform="translate(-0.125 1.531)" fill="#d9720b"/>
        </g>
        <g id="Group_1703" data-name="Group 1703" transform="translate(72.341 64.327)">
          <path id="Path_8119" data-name="Path 8119" d="M.221-1.526V-1.5L.206-1.5l-.015,0A.031.031,0,0,0,.168-1.5a.031.031,0,0,0-.008.023.036.036,0,0,0,.008.025.033.033,0,0,0,.023.008.046.046,0,0,0,.016,0l.014-.008v.029l-.017,0H.188a.068.068,0,0,1-.047-.015.054.054,0,0,1-.016-.042.053.053,0,0,1,.016-.041.066.066,0,0,1,.047-.016l.016,0,.017,0Z" transform="translate(-0.125 1.531)" fill="#d9720b"/>
        </g>
        <g id="Group_1704" data-name="Group 1704" transform="translate(72.452 64.298)">
          <path id="Path_8120" data-name="Path 8120" d="M.084-1.922v.031H.12v.025H.084v.047a.017.017,0,0,0,0,.01.022.022,0,0,0,.013,0H.117v.025H.087a.044.044,0,0,1-.03-.008.044.044,0,0,1-.008-.03v-.047H.031v-.025H.05v-.031Z" transform="translate(-0.031 1.922)" fill="#d9720b"/>
        </g>
      </g>
    </g>
  </g>
</svg>
