<svg xmlns="http://www.w3.org/2000/svg" width="45.307" height="45.307" viewBox="0 0 45.307 45.307">
  <g id="plus-svgrepo-com" transform="translate(0 22.648) rotate(-45)">
    <path id="Path_95" data-name="Path 95" d="M27.344,4.693A16.022,16.022,0,0,0,4.685,27.351,16.022,16.022,0,0,0,27.344,4.693Zm-2.06,20.6A13.109,13.109,0,1,1,6.745,6.753,13.109,13.109,0,1,1,25.284,25.291Z" fill="#ff5041"/>
    <path id="Path_96" data-name="Path 96" d="M18.935,8.739H11.652V1.457a1.457,1.457,0,1,0-2.913,0V8.739H1.457a1.457,1.457,0,1,0,0,2.913H8.739v7.283a1.457,1.457,0,0,0,2.913,0V11.652h7.283a1.457,1.457,0,0,0,0-2.913Z" transform="translate(5.819 5.826)" fill="#ff5041"/>
  </g>
</svg>
