<svg xmlns="http://www.w3.org/2000/svg" width="31.425" height="31.425" viewBox="0 0 31.425 31.425">
  <g id="Group_1708" data-name="Group 1708" transform="translate(-1397.105 -888.745)">
    <path id="Path_56" data-name="Path 56" d="M157.392,84.842l-3.5-20.986H149.57a7.856,7.856,0,1,0-15.712,0h-4.324l-3.5,20.986a2.149,2.149,0,0,0,2.188,2.583H155.2a2.15,2.15,0,0,0,2.187-2.583ZM141.715,58.619a5.238,5.238,0,0,1,5.237,5.237H136.477a5.238,5.238,0,0,1,5.238-5.237ZM128.7,84.806l3.056-18.331h2.1v2.618h2.619V66.475h10.475v2.618h2.618V66.475h2.106l3.055,18.331Z" transform="translate(1271.103 832.745)" fill="#d8345b"/>
    <path id="Path_57" data-name="Path 57" d="M248.634,245.606h-4.34l1.557-1.557-1.389-1.389-3,3a1.309,1.309,0,0,0,0,1.851l3,3,1.387-1.389-1.557-1.557h4.341a3.11,3.11,0,0,1,0,6.219H238v1.964h10.638a5.074,5.074,0,0,0,0-10.148Z" transform="translate(1166.965 659.179)" fill="#d8345b"/>
  </g>
</svg>
