<svg xmlns="http://www.w3.org/2000/svg" width="32.907" height="32.907" viewBox="0 0 32.907 32.907">
  <g id="Group_1609" data-name="Group 1609" transform="translate(-17300.479 -731.65)">
    <path id="Path_99" data-name="Path 99" d="M145.464,61.4a14.06,14.06,0,1,1-14.1,14.06,14.059,14.059,0,0,1,14.1-14.06m0-2.044a16.1,16.1,0,1,0,16.1,16.1A16.109,16.109,0,0,0,145.464,59.359Z" transform="translate(17171.469 672.641)" stroke="#000" stroke-width="0.7"/>
    <path id="Path_100" data-name="Path 100" d="M272.523,170.2a.917.917,0,0,1-.94.9h-3.065a5.093,5.093,0,0,1-4.986,3.842h-1.063l6.621,6.335a.951.951,0,0,1,.041,1.308,1.158,1.158,0,0,1-.654.286,1.088,1.088,0,0,1-.654-.245l-8.256-7.889c-.082-.082-.163-.163-.163-.245,0-.041-.041-.082-.041-.123s-.041-.082-.041-.123v-.368a1.451,1.451,0,0,1,.163-.368c.082-.082.163-.2.286-.245.082-.082.2-.082.286-.123h3.515a3.375,3.375,0,0,0,3.065-2H260.18a.907.907,0,0,1-.9-.9.944.944,0,0,1,.9-.94H266.8a3.338,3.338,0,0,0-2.861-2.779c-.123,0-.286-.041-.409-.041H260.18a.922.922,0,0,1-.9-.736v-.368c0-.041.041-.123.041-.163s.041-.082.041-.123a.893.893,0,0,1,.163-.2l.123-.123a.97.97,0,0,1,.49-.123h11.4a.94.94,0,0,1,0,1.88h-4.087a5.174,5.174,0,0,1,1.185,2.779h2.9a.9.9,0,0,1,.981.9Z" transform="translate(17051.027 575.043)" stroke="#000" stroke-width="0.7"/>
  </g>
</svg>
