<svg xmlns="http://www.w3.org/2000/svg" width="27.829" height="29.033" viewBox="0 0 27.829 29.033">
  <g id="Group_1709" data-name="Group 1709" transform="translate(-1442.172 -891.137)">
    <g id="Group_1663" data-name="Group 1663" transform="translate(19477.082 16274.137)">
      <path id="Path_8070" data-name="Path 8070" d="M219.826,6.069h7.718l.7-.992c.579-.859,1.221-1.682,1.764-2.565.256-.411.751-1.1.558-1.633-.133-.375-.484-.5-.872-.569a8.112,8.112,0,0,0-2.226-.278,12.562,12.562,0,0,0-1.439.5,5.62,5.62,0,0,1-2.153.387A7.228,7.228,0,0,1,221.906.59a8.314,8.314,0,0,0-1.512-.532,13,13,0,0,0-2.444.206c-2.359.4-.641,2.177,1.173,4.815Z" transform="translate(-18244.703 -15383.008)" fill="#a532a8"/>
      <path id="Path_8071" data-name="Path 8071" d="M108.745,170.738c-1.985-4.524-5.564-9.447-9.314-11.818H91.64c-3.75,2.371-7.331,7.294-9.314,11.818s.4,8.976,4.936,8.976h16.548c4.536,0,6.92-4.451,4.935-8.976Zm-11.371,6.1v-2.706H89.25v-2.711h12.635Zm4.512-7.922H89.25l4.512-5.418V166.2h8.124Z" transform="translate(-18116.531 -15533.682)" fill="#a532a8" fill-rule="evenodd"/>
    </g>
  </g>
</svg>
