<svg xmlns="http://www.w3.org/2000/svg" width="40.145" height="23.816" viewBox="0 0 40.145 23.816">
  <g id="view-svgrepo-com_1_" data-name="view-svgrepo-com (1)" transform="translate(0 -16.43)">
    <g id="Group_287" data-name="Group 287" transform="translate(0 16.43)">
      <path id="Path_99" data-name="Path 99" d="M39.427,27.42c-.351-.449-8.71-10.99-19.355-10.99S1.068,26.972.717,27.42L0,28.338l.717.918c.351.449,8.71,10.991,19.356,10.991s19-10.542,19.355-10.991l.717-.918ZM20.073,37.266c-7.487,0-14.022-6.482-16.219-8.927,2.2-2.446,8.733-8.927,16.219-8.927s14.021,6.482,16.219,8.927C34.092,30.784,27.558,37.266,20.073,37.266Z" transform="translate(0 -16.43)" fill="#63b8ec"/>
      <path id="Path_100" data-name="Path 100" d="M32.138,23.983a8.156,8.156,0,1,0,8.157,8.156A8.165,8.165,0,0,0,32.138,23.983Zm0,13.331a5.175,5.175,0,1,1,5.175-5.176A5.181,5.181,0,0,1,32.138,37.314Z" transform="translate(-12.066 -20.23)" fill="#63b8ec"/>
    </g>
  </g>
</svg>
